<svg width="57" height="57" viewBox="0 0 57 57" fill="none" xmlns="http://www.w3.org/2000/svg">
  <circle cx="28.5" cy="28.5" r="28" stroke="white"/>
  <path fill-rule="evenodd" clip-rule="evenodd" d="M28.8012 16C25.3249 16 24.8886 16.0152 23.5233 16.0773C22.1606 16.1397 21.2305 16.3555 20.4166 16.672C19.5747 16.9989 18.8606 17.4363 18.1491 18.148C17.4371 18.8595 16.9997 19.5736 16.6717 20.4152C16.3544 21.2294 16.1384 22.1598 16.0771 23.5219C16.016 24.8873 16 25.3238 16 28.8001C16 32.2764 16.0155 32.7114 16.0773 34.0767C16.14 35.4394 16.3557 36.3695 16.672 37.1834C16.9992 38.0253 17.4365 38.7394 18.1483 39.4509C18.8595 40.1629 19.5736 40.6013 20.415 40.9283C21.2294 41.2448 22.1598 41.4605 23.5222 41.5229C24.8876 41.5851 25.3236 41.6003 28.7996 41.6003C32.2762 41.6003 32.7111 41.5851 34.0765 41.5229C35.4391 41.4605 36.3703 41.2448 37.1848 40.9283C38.0264 40.6013 38.7394 40.1629 39.4506 39.4509C40.1627 38.7394 40.6 38.0253 40.928 37.1837C41.2427 36.3695 41.4587 35.4391 41.5227 34.077C41.584 32.7116 41.6 32.2764 41.6 28.8001C41.6 25.3238 41.584 24.8876 41.5227 23.5222C41.4587 22.1595 41.2427 21.2294 40.928 20.4155C40.6 19.5736 40.1627 18.8595 39.4506 18.148C38.7386 17.436 38.0266 16.9987 37.184 16.672C36.3679 16.3555 35.4373 16.1397 34.0746 16.0773C32.7092 16.0152 32.2746 16 28.7972 16H28.8012ZM28.3743 18.3066H28.3746L28.8012 18.3067C32.2188 18.3067 32.6239 18.3189 33.9735 18.3803C35.2215 18.4374 35.8989 18.6459 36.3501 18.8211C36.9474 19.0531 37.3733 19.3304 37.821 19.7784C38.269 20.2264 38.5464 20.6531 38.7789 21.2504C38.9541 21.7011 39.1629 22.3785 39.2197 23.6265C39.281 24.9758 39.2944 25.3812 39.2944 28.7972C39.2944 32.2132 39.281 32.6186 39.2197 33.9679C39.1626 35.2159 38.9541 35.8933 38.7789 36.3439C38.5469 36.9413 38.269 37.3666 37.821 37.8144C37.373 38.2624 36.9477 38.5397 36.3501 38.7717C35.8994 38.9477 35.2215 39.1557 33.9735 39.2128C32.6242 39.2741 32.2188 39.2874 28.8012 39.2874C25.3833 39.2874 24.9782 39.2741 23.6289 39.2128C22.3809 39.1552 21.7035 38.9466 21.2521 38.7714C20.6547 38.5394 20.228 38.2621 19.78 37.8141C19.332 37.3661 19.0547 36.9405 18.8222 36.3429C18.647 35.8922 18.4382 35.2149 18.3814 33.9668C18.32 32.6175 18.3078 32.2122 18.3078 28.794C18.3078 25.3758 18.32 24.9726 18.3814 23.6233C18.4384 22.3753 18.647 21.6979 18.8222 21.2467C19.0542 20.6494 19.332 20.2227 19.78 19.7747C20.228 19.3267 20.6547 19.0494 21.2521 18.8168C21.7033 18.6408 22.3809 18.4328 23.6289 18.3755C24.8097 18.3221 25.2673 18.3061 27.6529 18.3035V18.3067C27.8758 18.3063 28.1156 18.3064 28.3743 18.3066ZM34.0978 21.9675C34.0978 21.1193 34.7858 20.4321 35.6338 20.4321V20.4315C36.4818 20.4315 37.1698 21.1195 37.1698 21.9675C37.1698 22.8155 36.4818 23.5036 35.6338 23.5036C34.7858 23.5036 34.0978 22.8155 34.0978 21.9675ZM28.8009 22.2267C25.1709 22.2269 22.2278 25.17 22.2278 28.8001C22.2278 32.4303 25.171 35.3722 28.8012 35.3722C32.4314 35.3722 35.3735 32.4303 35.3735 28.8001C35.3735 25.17 32.4311 22.2267 28.8009 22.2267ZM33.0679 28.8001C33.0679 26.4436 31.1575 24.5334 28.8012 24.5334C26.4446 24.5334 24.5345 26.4436 24.5345 28.8001C24.5345 31.1564 26.4446 33.0668 28.8012 33.0668C31.1575 33.0668 33.0679 31.1564 33.0679 28.8001Z" fill="white"/>
  </svg>
