<svg width="57" height="57" viewBox="0 0 57 57" fill="none" xmlns="http://www.w3.org/2000/svg">
<circle cx="28.5" cy="28.5" r="28" stroke="white"/>
<path d="M37.9415 17.9336C35.984 15.9779 33.1702 15 30.1117 15C25.4628 15 22.6489 16.9557 21.0585 18.5448C19.1011 20.5005 18 23.0674 18 25.7565C18 29.0568 19.3457 31.5015 21.6702 32.4794C21.7926 32.6016 22.0372 32.6016 22.1596 32.6016C22.6489 32.6016 23.016 32.2349 23.1383 31.746C23.2607 31.5015 23.383 30.7681 23.5053 30.4014C23.6277 29.7902 23.5053 29.5458 23.1383 29.0568C22.5266 28.3234 22.1596 27.3456 22.1596 26.1232C22.1596 22.5785 24.8511 18.7892 29.7447 18.7892C33.6596 18.7892 36.1064 20.9894 36.1064 24.5342C36.1064 26.7344 35.617 28.8124 34.7607 30.4014C34.149 31.5015 33.0479 32.7238 31.4575 32.7238C30.7234 32.7238 30.1117 32.4794 29.7447 31.8682C29.3777 31.3793 29.2553 30.7681 29.3777 30.1569C29.5 29.4235 29.7447 28.6901 29.9894 27.9567C30.3564 26.6122 30.8458 25.2676 30.8458 24.2897C30.8458 22.5785 29.7447 21.3561 28.1542 21.3561C26.0745 21.3561 24.484 23.4341 24.484 26.001C24.484 27.3456 24.8511 28.2012 24.9734 28.5679C24.7287 29.668 23.1383 36.1464 22.8936 37.2465C22.7713 37.9799 21.6702 43.6026 23.383 43.9693C25.2181 44.4582 26.9308 38.9577 27.0532 38.3466C27.1755 37.8576 27.6649 35.9019 27.9096 34.8018C28.766 35.6574 30.2341 36.2686 31.7022 36.2686C34.3936 36.2686 36.7181 35.0463 38.4309 32.8461C40.0213 30.7681 41 27.8345 41 24.5342C40.8777 22.334 39.8989 19.7671 37.9415 17.9336Z" fill="white"/>
</svg>
