<svg width="57" height="57" viewBox="0 0 57 57" fill="none" xmlns="http://www.w3.org/2000/svg">
<circle cx="28.5" cy="28.5" r="28" stroke="white"/>
<path d="M12.4142 28.565C15.2198 27.0196 18.3516 25.7297 21.2778 24.4333C26.312 22.3099 31.3662 20.2233 36.4714 18.2807C37.4647 17.9498 39.2494 17.6261 39.4244 19.0981C39.3285 21.1817 38.9343 23.2531 38.664 25.3245C37.9777 29.8797 37.1845 34.4193 36.411 38.9595C36.1445 40.4718 34.25 41.2547 33.0378 40.2869C30.1246 38.3191 27.189 36.3705 24.313 34.3571C23.3709 33.3998 24.2445 32.0251 25.0859 31.3415C27.4853 28.9769 30.0299 26.9678 32.3039 24.4811C32.9173 22.9998 31.1049 24.2481 30.507 24.6307C27.2222 26.8943 24.0178 29.2961 20.5546 31.2855C18.7856 32.2593 16.7238 31.4271 14.9556 30.8837C13.3703 30.2273 11.0472 29.5658 12.4142 28.565Z" fill="white"/>
</svg>
