<svg width="57" height="57" viewBox="0 0 57 57" fill="none" xmlns="http://www.w3.org/2000/svg">
<circle cx="28.5" cy="28.5" r="28" stroke="white"/>
<path d="M35.5759 18.6171C31.2199 17.7943 26.6963 17.7943 22.3403 18.6171C20.4136 19.0285 17.9843 21.3324 17.5654 23.1427C16.8115 26.6808 16.8115 30.3013 17.5654 33.8394C18.0681 35.6496 20.4974 37.9535 22.3403 38.365C22.4241 38.365 22.5078 38.4472 22.5078 38.5295V43.7133C22.5078 43.9602 22.8429 44.1247 23.0105 43.8779L25.5236 41.3271C25.5236 41.3271 27.534 39.2701 27.8691 38.9409C27.8691 38.9409 27.9529 38.8587 28.0367 38.8587C30.5497 38.9409 33.1466 38.6941 35.6597 38.2827C37.5864 37.8713 40.0157 35.5673 40.4346 33.7571C41.1885 30.219 41.1885 26.5985 40.4346 23.0604C39.9319 21.3324 37.5026 19.0285 35.5759 18.6171ZM35.6597 34.0863C35.2408 34.9091 34.7382 35.5673 33.9005 35.9788C33.6492 36.061 33.3979 36.1433 33.1466 36.2256C32.8115 36.1433 32.5602 36.061 32.3089 35.9788C29.6283 34.9091 27.1152 33.428 25.1047 31.2886C24.0157 30.0544 23.0942 28.6556 22.3403 27.1745C22.0052 26.434 21.6702 25.7757 21.4188 25.0352C21.1675 24.3769 21.5864 23.7186 22.0052 23.2249C22.4241 22.7313 22.9267 22.4021 23.5131 22.1553C23.9319 21.9084 24.3508 22.073 24.6859 22.4021C25.356 23.2249 26.0262 24.0478 26.5288 24.9529C26.8639 25.5289 26.7801 26.1871 26.1937 26.5985C26.0262 26.6808 25.9424 26.7631 25.7749 26.9277C25.6911 27.0099 25.5236 27.0922 25.4398 27.2568C25.2722 27.5036 25.2722 27.7505 25.356 27.9973C26.0262 29.8898 27.2827 31.3709 29.2094 32.1938C29.5445 32.3583 29.7958 32.4406 30.2147 32.4406C30.801 32.3583 31.0524 31.7001 31.4712 31.3709C31.8901 31.0418 32.3927 31.0418 32.8953 31.2886C33.3141 31.5355 33.733 31.8646 34.2356 32.1938C34.6544 32.5229 35.0733 32.7697 35.4921 33.0989C35.7435 33.2634 35.8272 33.6748 35.6597 34.0863ZM32.1414 27.9151C31.9738 27.9151 32.0576 27.9151 32.1414 27.9151C31.8063 27.9151 31.7225 27.7505 31.6387 27.5036C31.6387 27.3391 31.6387 27.0922 31.555 26.9277C31.4712 26.5985 31.3037 26.2694 30.9686 26.0226C30.801 25.9403 30.6335 25.858 30.466 25.7757C30.2147 25.6934 30.0471 25.6934 29.7958 25.6934C29.5445 25.6111 29.4607 25.4466 29.4607 25.1997C29.4607 25.0352 29.712 24.8706 29.8796 24.8706C31.2199 24.9529 32.2251 25.6934 32.3927 27.2568C32.3927 27.3391 32.3927 27.5036 32.3927 27.5859C32.3927 27.7505 32.3089 27.9151 32.1414 27.9151ZM31.3037 24.2946C30.8848 24.1301 30.466 23.9655 29.9633 23.8832C29.7958 23.8832 29.5445 23.8009 29.377 23.8009C29.1257 23.8009 28.9581 23.6364 29.0419 23.3895C29.0419 23.1427 29.2094 22.9781 29.4607 23.0604C30.2984 23.1427 31.0524 23.3072 31.8063 23.6364C33.3141 24.3769 34.1518 25.6111 34.4031 27.2568C34.4031 27.3391 34.4031 27.4214 34.4031 27.5036C34.4031 27.6682 34.4031 27.8328 34.4031 28.0796C34.4031 28.1619 34.4031 28.2442 34.4031 28.3265C34.3194 28.6556 33.733 28.7379 33.6492 28.3265C33.6492 28.2442 33.5654 28.0796 33.5654 27.9973C33.5654 27.2568 33.3979 26.5163 33.0628 25.858C32.5602 25.1174 31.9738 24.6238 31.3037 24.2946ZM35.8272 29.2316C35.5759 29.2316 35.4084 28.9847 35.4084 28.7379C35.4084 28.2442 35.3246 27.7505 35.2408 27.2568C34.9058 24.6238 32.7278 22.4844 30.1309 22.073C29.712 21.9907 29.2932 21.9907 28.9581 21.9084C28.7068 21.9084 28.3717 21.9084 28.288 21.5793C28.2042 21.3324 28.4555 21.0856 28.7068 21.0856C28.7906 21.0856 28.8743 21.0856 28.8743 21.0856C29.0419 21.0856 32.3089 21.1679 28.8743 21.0856C32.3927 21.1679 35.3246 23.4718 35.911 26.9277C35.9948 27.5036 36.0785 28.0796 36.0785 28.7379C36.2461 28.9847 36.0785 29.2316 35.8272 29.2316Z" fill="white"/>
</svg>
