<svg width="57" height="57" viewBox="0 0 57 57" fill="none" xmlns="http://www.w3.org/2000/svg">
<circle cx="28.5" cy="28.5" r="28" stroke="white"/>
<path d="M38.3415 18.6458C35.9895 16.3021 32.8537 15 29.5436 15C22.662 15 17.0871 20.5556 17.0871 27.4132C17.0871 29.5833 17.6969 31.7535 18.7422 33.5764L17 40L23.6202 38.2639C25.4495 39.2188 27.453 39.7396 29.5436 39.7396C36.4251 39.7396 42 34.184 42 27.3264C41.9129 24.1146 40.6934 20.9896 38.3415 18.6458ZM35.554 31.8403C35.2927 32.5347 34.0732 33.2292 33.4634 33.316C32.9408 33.4028 32.2439 33.4028 31.547 33.2292C31.1115 33.0556 30.5017 32.8819 29.8049 32.5347C26.669 31.2326 24.6655 28.1076 24.4913 27.8472C24.3171 27.6736 23.1847 26.1979 23.1847 24.6354C23.1847 23.0729 23.9686 22.3785 24.23 22.0312C24.4913 21.684 24.8397 21.684 25.101 21.684C25.2753 21.684 25.5366 21.684 25.7108 21.684C25.885 21.684 26.1463 21.5972 26.4077 22.2049C26.669 22.8125 27.2787 24.375 27.3659 24.4618C27.453 24.6354 27.453 24.809 27.3659 24.9826C27.2787 25.1562 27.1916 25.3299 27.0174 25.5035C26.8432 25.6771 26.669 25.9375 26.5819 26.0243C26.4077 26.1979 26.2334 26.3715 26.4077 26.6319C26.5819 26.9792 27.1916 27.934 28.1498 28.8021C29.3693 29.8437 30.3275 30.191 30.676 30.3646C31.0244 30.5382 31.1986 30.4514 31.3728 30.2778C31.547 30.1042 32.1568 29.4097 32.331 29.0625C32.5052 28.7153 32.7665 28.8021 33.0279 28.8889C33.2892 28.9757 34.8571 29.7569 35.1185 29.9306C35.4669 30.1042 35.6411 30.191 35.7282 30.2778C35.8153 30.5382 35.8153 31.1458 35.554 31.8403Z" fill="white"/>
</svg>
