<svg width="227" height="58" viewBox="0 0 227 58" fill="none" xmlns="http://www.w3.org/2000/svg">
<circle cx="28.5" cy="29.5" r="28" stroke="white"/>
<path d="M26.1553 31.0146H22.5V27.3447H26.1553H26.6553V26.8447V23.2854C26.6553 21.3629 27.2329 19.9313 28.1952 18.9802C29.1588 18.0279 30.5663 17.5 32.337 17.5C33.2057 17.5 34.1008 17.5768 34.7831 17.6545C35.0661 17.6868 35.3109 17.7191 35.5 17.7457V20.7913H33.9352C32.8121 20.7913 31.9931 21.1397 31.4636 21.745C30.9452 22.3376 30.7694 23.1027 30.7694 23.8155V26.8447V27.3447H31.2694H35.2245L34.6543 31.0146H31.2694H30.7694V31.5146V42.3701C30.0958 42.4561 29.4096 42.5 28.7123 42.5C28.0151 42.5 27.3288 42.4561 26.6553 42.3701V31.5146V31.0146H26.1553Z" fill="white" stroke="black"/>
<circle cx="113.5" cy="29.5" r="28" stroke="white"/>
<path d="M113.168 25.0543L113.218 25.8761L112.387 25.7755C109.362 25.3897 106.72 24.0816 104.476 21.8845L103.379 20.7943L103.097 21.5994C102.499 23.3939 102.881 25.2891 104.127 26.5637C104.792 27.2681 104.642 27.3688 103.496 26.9495C103.097 26.8153 102.748 26.7147 102.715 26.765C102.598 26.8824 102.997 28.4086 103.313 29.0124C103.745 29.8509 104.626 30.6728 105.59 31.1591L106.404 31.5449L105.44 31.5616C104.509 31.5616 104.476 31.5784 104.576 31.9306C104.908 33.0208 106.221 34.178 107.684 34.6811L108.714 35.0333L107.817 35.57C106.487 36.3415 104.925 36.7776 103.363 36.8111C102.615 36.8279 102 36.895 102 36.9453C102 37.113 104.027 38.0522 105.207 38.4212C108.747 39.5113 112.952 39.0417 116.109 37.1801C118.353 35.8551 120.596 33.222 121.643 30.6728C122.208 29.3143 122.773 26.8321 122.773 25.6413C122.773 24.8698 122.823 24.7692 123.754 23.8467C124.302 23.3101 124.818 22.7231 124.917 22.5553C125.083 22.2367 125.067 22.2367 124.219 22.5218C122.807 23.0249 122.607 22.9579 123.305 22.2031C123.82 21.6665 124.435 20.6937 124.435 20.4086C124.435 20.3583 124.186 20.4421 123.904 20.5931C123.604 20.7608 122.94 21.0124 122.441 21.1633L121.544 21.4484L120.729 20.895C120.281 20.5931 119.649 20.2576 119.317 20.157C118.469 19.9222 117.173 19.9558 116.408 20.2241C114.331 20.9788 113.018 22.9243 113.168 25.0543Z" fill="white"/>
<circle cx="198.5" cy="28.5" r="28" stroke="white"/>
<path fill-rule="evenodd" clip-rule="evenodd" d="M198.801 16C195.325 16 194.889 16.0152 193.523 16.0773C192.161 16.1397 191.23 16.3555 190.417 16.672C189.575 16.9989 188.861 17.4363 188.149 18.148C187.437 18.8595 187 19.5736 186.672 20.4153C186.354 21.2294 186.138 22.1598 186.077 23.5219C186.016 24.8873 186 25.3238 186 28.8001C186 32.2764 186.015 32.7114 186.077 34.0767C186.14 35.4394 186.356 36.3695 186.672 37.1834C186.999 38.0253 187.437 38.7394 188.148 39.4509C188.859 40.1629 189.574 40.6013 190.415 40.9283C191.229 41.2448 192.16 41.4605 193.522 41.5229C194.888 41.5851 195.324 41.6003 198.8 41.6003C202.276 41.6003 202.711 41.5851 204.076 41.5229C205.439 41.4605 206.37 41.2448 207.185 40.9283C208.026 40.6013 208.739 40.1629 209.451 39.4509C210.163 38.7394 210.6 38.0253 210.928 37.1837C211.243 36.3695 211.459 35.4391 211.523 34.077C211.584 32.7116 211.6 32.2764 211.6 28.8001C211.6 25.3238 211.584 24.8876 211.523 23.5222C211.459 22.1595 211.243 21.2294 210.928 20.4155C210.6 19.5736 210.163 18.8595 209.451 18.148C208.739 17.436 208.027 16.9987 207.184 16.672C206.368 16.3555 205.437 16.1397 204.075 16.0773C202.709 16.0152 202.275 16 198.797 16H198.801ZM197.653 18.3067C197.876 18.3063 198.116 18.3064 198.375 18.3066L198.801 18.3067C202.219 18.3067 202.624 18.319 203.974 18.3803C205.222 18.4373 205.899 18.6459 206.35 18.8211C206.947 19.0531 207.373 19.3304 207.821 19.7784C208.269 20.2264 208.546 20.6531 208.779 21.2504C208.954 21.7011 209.163 22.3785 209.22 23.6265C209.281 24.9758 209.294 25.3811 209.294 28.7972C209.294 32.2132 209.281 32.6186 209.22 33.9679C209.163 35.2159 208.954 35.8933 208.779 36.3439C208.547 36.9413 208.269 37.3666 207.821 37.8143C207.373 38.2624 206.948 38.5397 206.35 38.7717C205.899 38.9477 205.222 39.1557 203.974 39.2128C202.624 39.2741 202.219 39.2874 198.801 39.2874C195.383 39.2874 194.978 39.2741 193.629 39.2128C192.381 39.1552 191.704 38.9466 191.252 38.7714C190.655 38.5394 190.228 38.2621 189.78 37.8141C189.332 37.3661 189.055 36.9405 188.822 36.3429C188.647 35.8922 188.438 35.2149 188.381 33.9668C188.32 32.6175 188.308 32.2122 188.308 28.794C188.308 25.3758 188.32 24.9726 188.381 23.6233C188.438 22.3753 188.647 21.6979 188.822 21.2467C189.054 20.6494 189.332 20.2227 189.78 19.7747C190.228 19.3267 190.655 19.0494 191.252 18.8168C191.703 18.6408 192.381 18.4328 193.629 18.3755C194.81 18.3221 195.267 18.3062 197.653 18.3035V18.3067ZM204.098 21.9675C204.098 21.1193 204.786 20.4321 205.634 20.4321V20.4315C206.482 20.4315 207.17 21.1195 207.17 21.9675C207.17 22.8155 206.482 23.5036 205.634 23.5036C204.786 23.5036 204.098 22.8155 204.098 21.9675ZM198.801 22.2267C195.171 22.2269 192.228 25.1701 192.228 28.8001C192.228 32.4303 195.171 35.3722 198.801 35.3722C202.431 35.3722 205.374 32.4303 205.374 28.8001C205.374 25.17 202.431 22.2267 198.801 22.2267ZM203.068 28.8001C203.068 26.4436 201.157 24.5334 198.801 24.5334C196.445 24.5334 194.534 26.4436 194.534 28.8001C194.534 31.1564 196.445 33.0668 198.801 33.0668C201.157 33.0668 203.068 31.1564 203.068 28.8001Z" fill="white"/>
<path d="M193.523 16.0773L193.501 15.5778L193.5 15.5779L193.523 16.0773ZM190.417 16.672L190.598 17.1381L190.598 17.138L190.417 16.672ZM188.149 18.148L188.503 18.5017L188.503 18.5015L188.149 18.148ZM186.672 20.4153L187.138 20.5968L187.138 20.5968L186.672 20.4153ZM186.077 23.5219L185.578 23.4995L185.578 23.4996L186.077 23.5219ZM186.077 34.0767L185.578 34.0994L185.578 34.0997L186.077 34.0767ZM186.672 37.1834L186.206 37.3645L186.206 37.3646L186.672 37.1834ZM188.148 39.4509L188.502 39.0976L188.502 39.0973L188.148 39.4509ZM190.415 40.9283L190.596 40.4622L190.596 40.4622L190.415 40.9283ZM193.522 41.5229L193.499 42.0224L193.499 42.0224L193.522 41.5229ZM204.076 41.5229L204.099 42.0224L204.099 42.0224L204.076 41.5229ZM207.185 40.9283L207.004 40.4622L207.004 40.4622L207.185 40.9283ZM209.451 39.4509L209.097 39.0972L209.097 39.0976L209.451 39.4509ZM210.928 37.1837L211.394 37.3652L211.394 37.3639L210.928 37.1837ZM211.523 34.077L212.022 34.1005L212.022 34.0994L211.523 34.077ZM211.523 23.5222L212.022 23.4998L212.022 23.4988L211.523 23.5222ZM210.928 20.4155L211.394 20.2352L211.394 20.234L210.928 20.4155ZM209.451 18.148L209.097 18.5016L209.097 18.5017L209.451 18.148ZM207.184 16.672L207.003 17.1382L207.003 17.1382L207.184 16.672ZM204.075 16.0773L204.097 15.5779L204.097 15.5778L204.075 16.0773ZM198.375 18.3066L198.374 18.8066H198.374L198.375 18.3066ZM197.653 18.3067H197.153V18.8075L197.654 18.8067L197.653 18.3067ZM198.801 18.3067L198.801 18.8067H198.801V18.3067ZM203.974 18.3803L203.996 17.8808L203.996 17.8808L203.974 18.3803ZM206.35 18.8211L206.531 18.355L206.531 18.355L206.35 18.8211ZM207.821 19.7784L207.467 20.1319L207.467 20.132L207.821 19.7784ZM208.779 21.2504L209.245 21.0693L209.245 21.0691L208.779 21.2504ZM209.22 23.6265L209.719 23.6038L209.719 23.6037L209.22 23.6265ZM209.22 33.9679L209.719 33.9908L209.719 33.9906L209.22 33.9679ZM208.779 36.3439L208.313 36.1628L208.313 36.1629L208.779 36.3439ZM207.821 37.8143L207.468 37.4607L207.467 37.4608L207.821 37.8143ZM206.35 38.7717L206.169 38.3056L206.168 38.306L206.35 38.7717ZM203.974 39.2128L203.996 39.7123L203.996 39.7122L203.974 39.2128ZM193.629 39.2128L193.606 39.7122L193.606 39.7123L193.629 39.2128ZM191.252 38.7714L191.071 39.2375L191.071 39.2376L191.252 38.7714ZM189.78 37.8141L189.426 38.1676H189.426L189.78 37.8141ZM188.822 36.3429L188.356 36.524L188.356 36.5242L188.822 36.3429ZM188.381 33.9668L187.882 33.9895L187.882 33.9896L188.381 33.9668ZM188.381 23.6233L187.882 23.6004L187.882 23.6006L188.381 23.6233ZM188.822 21.2467L188.356 21.0657L188.356 21.0657L188.822 21.2467ZM189.78 19.7747L190.134 20.1283L190.134 20.1283L189.78 19.7747ZM191.252 18.8168L191.433 19.2828L191.434 19.2826L191.252 18.8168ZM193.629 18.3755L193.606 17.876L193.606 17.876L193.629 18.3755ZM197.653 18.3035H198.153V17.8029L197.652 17.8035L197.653 18.3035ZM205.634 20.4321V20.9321H206.134V20.4321H205.634ZM205.634 20.4315V19.9315H205.134V20.4315H205.634ZM198.801 22.2267V21.7267H198.801L198.801 22.2267ZM193.546 16.5768C194.9 16.5152 195.327 16.5 198.801 16.5V15.5C195.322 15.5 194.877 15.5152 193.501 15.5778L193.546 16.5768ZM190.598 17.138C191.355 16.8436 192.231 16.6371 193.546 16.5768L193.5 15.5779C192.091 15.6424 191.106 15.8674 190.235 16.206L190.598 17.138ZM188.503 18.5015C189.162 17.8424 189.816 17.4418 190.598 17.1381L190.236 16.2059C189.334 16.5561 188.56 17.0301 187.795 17.7945L188.503 18.5015ZM187.138 20.5968C187.442 19.8147 187.843 19.1605 188.503 18.5017L187.796 17.7943C187.031 18.5585 186.557 19.3326 186.206 20.2337L187.138 20.5968ZM186.577 23.5444C186.636 22.2297 186.842 21.3539 187.138 20.5968L186.206 20.2337C185.866 21.1048 185.641 22.0899 185.578 23.4995L186.577 23.5444ZM186.5 28.8001C186.5 25.3267 186.516 24.8987 186.577 23.5443L185.578 23.4996C185.516 24.8759 185.5 25.321 185.5 28.8001H186.5ZM186.577 34.0541C186.515 32.6999 186.5 32.2737 186.5 28.8001H185.5C185.5 32.2791 185.515 32.7228 185.578 34.0994L186.577 34.0541ZM187.138 37.0023C186.844 36.2452 186.637 35.3693 186.577 34.0538L185.578 34.0997C185.643 35.5095 185.868 36.4939 186.206 37.3645L187.138 37.0023ZM188.502 39.0973C187.843 38.4385 187.442 37.7844 187.138 37.0023L186.206 37.3646C186.556 38.2662 187.03 39.0404 187.795 39.8045L188.502 39.0973ZM190.596 40.4622C189.815 40.1587 189.161 39.7571 188.502 39.0976L187.795 39.8043C188.558 40.5688 189.332 41.044 190.234 41.3943L190.596 40.4622ZM193.545 41.0235C192.23 40.9632 191.354 40.7567 190.596 40.4622L190.234 41.3943C191.105 41.7329 192.09 41.9578 193.499 42.0224L193.545 41.0235ZM198.8 41.1003C195.326 41.1003 194.899 41.0851 193.545 41.0235L193.499 42.0224C194.876 42.0851 195.321 42.1003 198.8 42.1003V41.1003ZM204.054 41.0235C202.7 41.0851 202.274 41.1003 198.8 41.1003V42.1003C202.279 42.1003 202.723 42.0851 204.099 42.0224L204.054 41.0235ZM207.004 40.4622C206.246 40.7567 205.369 40.9632 204.054 41.0235L204.099 42.0224C205.509 41.9578 206.495 41.7329 207.366 41.3943L207.004 40.4622ZM209.097 39.0976C208.438 39.7572 207.785 40.1587 207.004 40.4622L207.366 41.3943C208.268 41.0439 209.041 40.5686 209.804 39.8043L209.097 39.0976ZM210.462 37.0021C210.157 37.7842 209.757 38.4384 209.097 39.0972L209.804 39.8046C210.569 39.0405 211.043 38.2664 211.394 37.3652L210.462 37.0021ZM211.023 34.0535C210.961 35.3687 210.755 36.2454 210.462 37.0034L211.394 37.3639C211.731 36.4937 211.956 35.5096 212.022 34.1005L211.023 34.0535ZM211.1 28.8001C211.1 32.2736 211.084 32.7002 211.023 34.0546L212.022 34.0994C212.084 32.7231 212.1 32.2793 212.1 28.8001H211.1ZM211.023 23.5447C211.084 24.899 211.1 25.3267 211.1 28.8001H212.1C212.1 25.321 212.084 24.8761 212.022 23.4998L211.023 23.5447ZM210.462 20.5958C210.755 21.3536 210.961 22.2299 211.023 23.5457L212.022 23.4988C211.956 22.0891 211.731 21.1052 211.394 20.2352L210.462 20.5958ZM209.097 18.5017C209.757 19.1605 210.157 19.8147 210.462 20.597L211.394 20.234C211.043 19.3326 210.569 18.5585 209.804 17.7943L209.097 18.5017ZM207.003 17.1382C207.785 17.4414 208.437 17.8419 209.097 18.5016L209.804 17.7945C209.04 17.0302 208.268 16.5559 207.365 16.2058L207.003 17.1382ZM204.052 16.5768C205.367 16.6371 206.244 16.8436 207.003 17.1382L207.365 16.2059C206.492 15.8674 205.507 15.6424 204.097 15.5779L204.052 16.5768ZM198.797 16.5C202.272 16.5 202.698 16.5152 204.052 16.5768L204.097 15.5778C202.721 15.5152 202.277 15.5 198.797 15.5V16.5ZM198.801 15.5H198.797V16.5H198.801V15.5ZM198.375 17.8066C198.116 17.8064 197.876 17.8063 197.652 17.8067L197.654 18.8067C197.876 18.8063 198.115 18.8064 198.374 18.8066L198.375 17.8066ZM198.801 17.8067L198.375 17.8066L198.374 18.8066L198.801 18.8067L198.801 17.8067ZM203.996 17.8808C202.635 17.8189 202.221 17.8067 198.801 17.8067V18.8067C202.217 18.8067 202.613 18.819 203.951 18.8798L203.996 17.8808ZM206.531 18.355C206.03 18.1605 205.3 17.9404 203.996 17.8808L203.951 18.8798C205.144 18.9343 205.768 19.1313 206.169 19.2872L206.531 18.355ZM208.175 19.425C207.677 18.9273 207.193 18.6119 206.531 18.355L206.169 19.2872C206.702 19.4943 207.069 19.7335 207.467 20.1319L208.175 19.425ZM209.245 21.0691C208.988 20.4082 208.672 19.9226 208.175 19.4249L207.467 20.132C207.866 20.5303 208.105 20.8981 208.313 21.4318L209.245 21.0691ZM209.719 23.6037C209.66 22.3004 209.439 21.5696 209.245 21.0693L208.313 21.4316C208.469 21.8326 208.666 22.4565 208.72 23.6492L209.719 23.6037ZM209.794 28.7972C209.794 25.3789 209.781 24.9646 209.719 23.6038L208.72 23.6492C208.781 24.987 208.794 25.3834 208.794 28.7972H209.794ZM209.719 33.9906C209.781 32.6298 209.794 32.2155 209.794 28.7972H208.794C208.794 32.211 208.781 32.6073 208.72 33.9452L209.719 33.9906ZM209.245 36.5251C209.439 36.0247 209.66 35.2939 209.719 33.9908L208.72 33.9451C208.666 35.138 208.469 35.7619 208.313 36.1628L209.245 36.5251ZM208.174 38.168C208.672 37.671 208.988 37.1868 209.245 36.525L208.313 36.1629C208.106 36.6958 207.866 37.0622 207.468 37.4607L208.174 38.168ZM206.531 39.2378C207.193 38.9808 207.677 38.6653 208.175 38.1679L207.467 37.4608C207.069 37.8594 206.702 38.0985 206.169 38.3056L206.531 39.2378ZM203.996 39.7122C205.299 39.6527 206.031 39.4332 206.532 39.2374L206.168 38.306C205.768 38.4622 205.144 38.6587 203.951 38.7133L203.996 39.7122ZM198.801 39.7874C202.221 39.7874 202.635 39.7741 203.996 39.7123L203.951 38.7133C202.613 38.7741 202.217 38.7874 198.801 38.7874V39.7874ZM193.606 39.7123C194.967 39.7741 195.381 39.7874 198.801 39.7874V38.7874C195.386 38.7874 194.989 38.7741 193.652 38.7133L193.606 39.7123ZM191.071 39.2376C191.572 39.432 192.303 39.6521 193.606 39.7122L193.652 38.7133C192.459 38.6582 191.835 38.4613 191.433 38.3053L191.071 39.2376ZM189.426 38.1676C189.924 38.6654 190.41 38.9807 191.071 39.2375L191.433 38.3053C190.9 38.0981 190.532 37.8588 190.134 37.4605L189.426 38.1676ZM188.356 36.5242C188.614 37.1857 188.929 37.6701 189.426 38.1676L190.134 37.4605C189.735 37.062 189.496 36.6952 189.288 36.1616L188.356 36.5242ZM187.882 33.9896C187.941 35.2929 188.162 36.0237 188.356 36.524L189.288 36.1617C189.132 35.7607 188.935 35.1368 188.881 33.9441L187.882 33.9896ZM187.808 28.794C187.808 32.2141 187.82 32.6285 187.882 33.9895L188.881 33.9441C188.82 32.6064 188.808 32.2103 188.808 28.794H187.808ZM187.882 23.6006C187.82 24.9616 187.808 25.3739 187.808 28.794H188.808C188.808 25.3777 188.82 24.9837 188.881 23.646L187.882 23.6006ZM188.356 21.0657C188.162 21.5666 187.941 22.2973 187.882 23.6004L188.881 23.6461C188.935 22.4533 189.132 21.8293 189.288 21.4277L188.356 21.0657ZM189.426 19.4211C188.929 19.9187 188.613 20.4043 188.356 21.0657L189.288 21.4277C189.495 20.8945 189.735 20.5267 190.134 20.1283L189.426 19.4211ZM191.071 18.3509C190.41 18.6082 189.924 18.9234 189.426 19.4212L190.134 20.1283C190.532 19.73 190.9 19.4906 191.433 19.2828L191.071 18.3509ZM193.606 17.876C192.303 17.9359 191.572 18.1554 191.07 18.351L191.434 19.2826C191.835 19.1263 192.459 18.9298 193.652 18.875L193.606 17.876ZM197.652 17.8035C195.262 17.8062 194.797 17.8222 193.606 17.876L193.651 18.875C194.823 18.8221 195.273 18.8061 197.653 18.8035L197.652 17.8035ZM198.153 18.3067V18.3035H197.153V18.3067H198.153ZM205.634 19.9321C204.51 19.9321 203.598 20.8428 203.598 21.9675H204.598C204.598 21.3957 205.062 20.9321 205.634 20.9321V19.9321ZM205.134 20.4315V20.4321H206.134V20.4315H205.134ZM207.67 21.9675C207.67 20.8434 206.758 19.9315 205.634 19.9315V20.9315C206.206 20.9315 206.67 21.3957 206.67 21.9675H207.67ZM205.634 24.0036C206.758 24.0036 207.67 23.0917 207.67 21.9675H206.67C206.67 22.5394 206.206 23.0036 205.634 23.0036V24.0036ZM203.598 21.9675C203.598 23.0917 204.51 24.0036 205.634 24.0036V23.0036C205.062 23.0036 204.598 22.5394 204.598 21.9675H203.598ZM192.728 28.8001C192.728 25.4462 195.447 22.7269 198.801 22.7267L198.801 21.7267C194.895 21.7269 191.728 24.8939 191.728 28.8001H192.728ZM198.801 34.8722C195.447 34.8722 192.728 32.154 192.728 28.8001H191.728C191.728 32.7066 194.895 35.8722 198.801 35.8722V34.8722ZM204.874 28.8001C204.874 32.1541 202.155 34.8722 198.801 34.8722V35.8722C202.707 35.8722 205.874 32.7065 205.874 28.8001H204.874ZM198.801 22.7267C202.155 22.7267 204.874 25.446 204.874 28.8001H205.874C205.874 24.8939 202.707 21.7267 198.801 21.7267V22.7267ZM198.801 25.0334C200.881 25.0334 202.568 26.7197 202.568 28.8001H203.568C203.568 26.1674 201.434 24.0334 198.801 24.0334V25.0334ZM195.034 28.8001C195.034 26.7197 196.721 25.0334 198.801 25.0334V24.0334C196.168 24.0334 194.034 26.1674 194.034 28.8001H195.034ZM198.801 32.5668C196.721 32.5668 195.034 30.8803 195.034 28.8001H194.034C194.034 31.4325 196.168 33.5668 198.801 33.5668V32.5668ZM202.568 28.8001C202.568 30.8803 200.881 32.5668 198.801 32.5668V33.5668C201.434 33.5668 203.568 31.4326 203.568 28.8001H202.568Z" fill="#050215"/>
</svg>
