<svg width="57" height="57" viewBox="0 0 57 57" fill="none" xmlns="http://www.w3.org/2000/svg">
<circle cx="28.5" cy="28.5" r="28" stroke="white"/>
<path fill-rule="evenodd" clip-rule="evenodd" d="M22.9498 35.2167C23.4428 35.4883 23.9918 35.6302 24.5492 35.6299C26.4059 35.6299 27.9216 34.0876 27.99 32.1654L27.9969 15H32.0979C32.0983 15.3646 32.1308 15.7284 32.1949 16.0868H29.192V16.0874H32.1949H33.2937C33.2931 17.524 33.7918 18.912 34.697 19.9937C34.6974 19.9942 34.6978 19.9946 34.6982 19.9951C35.6217 20.6251 36.7011 20.9601 37.8042 20.959V21.9128C38.1903 21.9992 38.5894 22.0452 39 22.0452V26.3291C36.9525 26.3315 34.9561 25.6611 33.2937 24.4128V33.117C33.2937 37.4634 29.9071 41 25.7445 41C24.7078 41.0003 23.6823 40.7769 22.7322 40.344C21.7827 39.9114 20.929 39.2788 20.2245 38.4858C20.224 38.4854 20.2235 38.4851 20.2229 38.4847C18.2762 37.0573 17 34.6968 17 32.0302C17 27.6832 20.3866 24.146 24.5493 24.146C24.8896 24.1477 25.2295 24.1736 25.5665 24.2234V25.2376C25.5665 25.2376 25.5665 25.2376 25.5665 25.2376L25.5665 28.5961C25.5665 28.5961 25.5665 28.5961 25.5665 28.5961L25.5665 25.2376C25.5902 25.2371 25.6138 25.2362 25.6374 25.2354C25.6729 25.2341 25.7085 25.2328 25.7445 25.2328C26.0848 25.2345 26.4247 25.2603 26.7617 25.3102V29.6828C26.4401 29.5774 26.0997 29.5161 25.7445 29.5161C24.8303 29.5172 23.9539 29.897 23.3076 30.572C22.6613 31.2471 22.2978 32.1624 22.2969 33.117C22.2969 33.871 22.5251 34.6057 22.9489 35.2162C22.9492 35.2163 22.9495 35.2165 22.9498 35.2167ZM27.3517 36.3007C28.4074 35.7159 29.1383 34.5735 29.1858 33.2516V33.2522C29.1383 34.5737 28.4074 35.7159 27.3517 36.3007ZM24.5496 28.4293C24.7606 28.4294 24.9666 28.4509 25.1668 28.4907C24.9635 28.4506 24.757 28.4301 24.5496 28.4293ZM22.1126 29.4851C22.1126 29.4851 22.1126 29.4851 22.1126 29.4851V29.4851ZM18.6932 35.9298C19.0435 36.8831 19.5664 37.7479 20.2213 38.4828C19.5531 37.7361 19.0371 36.8676 18.6932 35.9298ZM24.5493 39.9132C24.5493 39.9132 24.5493 39.9132 24.5493 39.9132V39.9132ZM32.0979 32.0296V23.3255C32.0979 23.3255 32.098 23.3255 32.0979 23.3255V32.0296Z" fill="white"/>
</svg>
