<svg width="57" height="57" viewBox="0 0 57 57" fill="none" xmlns="http://www.w3.org/2000/svg">
<circle cx="28.5" cy="28.5" r="28" stroke="white"/>
<path d="M42 26.2929C42 25.7172 41.9051 25.0455 41.9051 24.2778C41.8102 23.5101 41.7153 22.7424 41.6204 22.0707C41.4307 21.303 41.146 20.7273 40.5766 20.2475C40.1022 19.7677 39.438 19.4798 38.7737 19.3838C36.5912 19.096 33.365 19 29 19C24.6351 19 21.3139 19.096 19.2263 19.3838C18.562 19.4798 17.8978 19.7677 17.4234 20.2475C16.9489 20.7273 16.5693 21.303 16.3796 22.0707C16.1898 22.7424 16.0949 23.4141 16.0949 24.2778C16 25.0455 16 25.7172 16 26.2929C16 26.8687 16 27.5404 16 28.5C16 29.4596 16 30.2273 16 30.7071C16 31.2828 16.0949 31.9545 16.0949 32.7222C16.1898 33.4899 16.2847 34.2576 16.3796 34.9293C16.5693 35.697 16.854 36.2727 17.4234 36.7525C17.8978 37.2323 18.562 37.5202 19.2263 37.6162C21.4088 37.904 24.6351 38 29 38C33.365 38 36.6861 37.904 38.7737 37.6162C39.438 37.5202 40.1022 37.2323 40.5766 36.7525C41.0511 36.2727 41.4307 35.697 41.6204 34.9293C41.8102 34.2576 41.9051 33.5859 41.9051 32.7222C42 31.9545 42 31.2828 42 30.7071C42 30.1313 42 29.4596 42 28.5C42 27.5404 42 26.7727 42 26.2929ZM34.0292 29.2677L26.5329 33.9697C26.438 34.0656 26.2482 34.1616 26.0584 34.1616C25.8686 34.1616 25.7737 34.1616 25.5839 34.0657C25.2993 33.8737 25.1095 33.5859 25.1095 33.202V23.702C25.1095 23.3182 25.2993 23.0303 25.5839 22.8384C25.8686 22.6465 26.2482 22.6465 26.5329 22.8384L34.0292 27.5404C34.3139 27.7323 34.5037 28.0202 34.5037 28.3081C34.5037 28.596 34.3139 29.0758 34.0292 29.2677Z" fill="white"/>
</svg>
